<mxfile host="app.diagrams.net" agent="Mozilla/5.0 (X11; Linux x86_64) AppleWebKit/537.36 (KHTML, like Gecko) Chrome/134.0.0.0 Safari/537.36" version="26.1.1">
  <diagram name="Page-1" id="WaZ2u2sEhuZtvwv6w4Qf">
    <mxGraphModel dx="772" dy="332" grid="1" gridSize="10" guides="1" tooltips="1" connect="1" arrows="1" fold="1" page="1" pageScale="1" pageWidth="850" pageHeight="1100" math="0" shadow="0">
      <root>
        <mxCell id="0" />
        <mxCell id="1" parent="0" />
        <mxCell id="uPYfZFIlQ1WotkED66Lh-37" value="" style="swimlane;startSize=0;" vertex="1" parent="1">
          <mxGeometry x="160" y="320" width="1600" height="360" as="geometry" />
        </mxCell>
        <mxCell id="uPYfZFIlQ1WotkED66Lh-48" value="" style="group" vertex="1" connectable="0" parent="uPYfZFIlQ1WotkED66Lh-37">
          <mxGeometry x="40" y="135" width="110" height="90" as="geometry" />
        </mxCell>
        <mxCell id="uPYfZFIlQ1WotkED66Lh-18" value="" style="shape=table;startSize=0;container=1;collapsible=0;childLayout=tableLayout;fontSize=16;" vertex="1" parent="uPYfZFIlQ1WotkED66Lh-48">
          <mxGeometry width="110" height="30" as="geometry" />
        </mxCell>
        <mxCell id="uPYfZFIlQ1WotkED66Lh-19" value="" style="shape=tableRow;horizontal=0;startSize=0;swimlaneHead=0;swimlaneBody=0;strokeColor=inherit;top=0;left=0;bottom=0;right=0;collapsible=0;dropTarget=0;fillColor=none;points=[[0,0.5],[1,0.5]];portConstraint=eastwest;fontSize=16;" vertex="1" parent="uPYfZFIlQ1WotkED66Lh-18">
          <mxGeometry width="110" height="30" as="geometry" />
        </mxCell>
        <mxCell id="uPYfZFIlQ1WotkED66Lh-20" value="1" style="shape=partialRectangle;html=1;whiteSpace=wrap;connectable=0;strokeColor=inherit;overflow=hidden;fillColor=none;top=0;left=0;bottom=0;right=0;pointerEvents=1;fontSize=16;" vertex="1" parent="uPYfZFIlQ1WotkED66Lh-19">
          <mxGeometry width="37" height="30" as="geometry">
            <mxRectangle width="37" height="30" as="alternateBounds" />
          </mxGeometry>
        </mxCell>
        <mxCell id="uPYfZFIlQ1WotkED66Lh-21" value="4" style="shape=partialRectangle;html=1;whiteSpace=wrap;connectable=0;strokeColor=inherit;overflow=hidden;fillColor=none;top=0;left=0;bottom=0;right=0;pointerEvents=1;fontSize=16;" vertex="1" parent="uPYfZFIlQ1WotkED66Lh-19">
          <mxGeometry x="37" width="36" height="30" as="geometry">
            <mxRectangle width="36" height="30" as="alternateBounds" />
          </mxGeometry>
        </mxCell>
        <mxCell id="uPYfZFIlQ1WotkED66Lh-22" value="4" style="shape=partialRectangle;html=1;whiteSpace=wrap;connectable=0;strokeColor=inherit;overflow=hidden;fillColor=none;top=0;left=0;bottom=0;right=0;pointerEvents=1;fontSize=16;" vertex="1" parent="uPYfZFIlQ1WotkED66Lh-19">
          <mxGeometry x="73" width="37" height="30" as="geometry">
            <mxRectangle width="37" height="30" as="alternateBounds" />
          </mxGeometry>
        </mxCell>
        <mxCell id="uPYfZFIlQ1WotkED66Lh-43" value="" style="shape=table;startSize=0;container=1;collapsible=0;childLayout=tableLayout;fontSize=16;" vertex="1" parent="uPYfZFIlQ1WotkED66Lh-48">
          <mxGeometry y="60" width="110" height="30" as="geometry" />
        </mxCell>
        <mxCell id="uPYfZFIlQ1WotkED66Lh-44" value="" style="shape=tableRow;horizontal=0;startSize=0;swimlaneHead=0;swimlaneBody=0;strokeColor=inherit;top=0;left=0;bottom=0;right=0;collapsible=0;dropTarget=0;fillColor=none;points=[[0,0.5],[1,0.5]];portConstraint=eastwest;fontSize=16;" vertex="1" parent="uPYfZFIlQ1WotkED66Lh-43">
          <mxGeometry width="110" height="30" as="geometry" />
        </mxCell>
        <mxCell id="uPYfZFIlQ1WotkED66Lh-45" value="1" style="shape=partialRectangle;html=1;whiteSpace=wrap;connectable=0;strokeColor=inherit;overflow=hidden;fillColor=none;top=0;left=0;bottom=0;right=0;pointerEvents=1;fontSize=16;" vertex="1" parent="uPYfZFIlQ1WotkED66Lh-44">
          <mxGeometry width="37" height="30" as="geometry">
            <mxRectangle width="37" height="30" as="alternateBounds" />
          </mxGeometry>
        </mxCell>
        <mxCell id="uPYfZFIlQ1WotkED66Lh-46" value="0" style="shape=partialRectangle;html=1;whiteSpace=wrap;connectable=0;strokeColor=inherit;overflow=hidden;fillColor=none;top=0;left=0;bottom=0;right=0;pointerEvents=1;fontSize=16;" vertex="1" parent="uPYfZFIlQ1WotkED66Lh-44">
          <mxGeometry x="37" width="36" height="30" as="geometry">
            <mxRectangle width="36" height="30" as="alternateBounds" />
          </mxGeometry>
        </mxCell>
        <mxCell id="uPYfZFIlQ1WotkED66Lh-47" value="4" style="shape=partialRectangle;html=1;whiteSpace=wrap;connectable=0;strokeColor=inherit;overflow=hidden;fillColor=none;top=0;left=0;bottom=0;right=0;pointerEvents=1;fontSize=16;" vertex="1" parent="uPYfZFIlQ1WotkED66Lh-44">
          <mxGeometry x="73" width="37" height="30" as="geometry">
            <mxRectangle width="37" height="30" as="alternateBounds" />
          </mxGeometry>
        </mxCell>
        <mxCell id="uPYfZFIlQ1WotkED66Lh-36" value="A" style="rounded=0;whiteSpace=wrap;html=1;" vertex="1" parent="uPYfZFIlQ1WotkED66Lh-48">
          <mxGeometry y="30" width="110" height="30" as="geometry" />
        </mxCell>
        <mxCell id="uPYfZFIlQ1WotkED66Lh-49" value="" style="group" vertex="1" connectable="0" parent="uPYfZFIlQ1WotkED66Lh-37">
          <mxGeometry x="190" y="135" width="110" height="90" as="geometry" />
        </mxCell>
        <mxCell id="uPYfZFIlQ1WotkED66Lh-50" value="" style="shape=table;startSize=0;container=1;collapsible=0;childLayout=tableLayout;fontSize=16;" vertex="1" parent="uPYfZFIlQ1WotkED66Lh-49">
          <mxGeometry width="110" height="30" as="geometry" />
        </mxCell>
        <mxCell id="uPYfZFIlQ1WotkED66Lh-51" value="" style="shape=tableRow;horizontal=0;startSize=0;swimlaneHead=0;swimlaneBody=0;strokeColor=inherit;top=0;left=0;bottom=0;right=0;collapsible=0;dropTarget=0;fillColor=none;points=[[0,0.5],[1,0.5]];portConstraint=eastwest;fontSize=16;" vertex="1" parent="uPYfZFIlQ1WotkED66Lh-50">
          <mxGeometry width="110" height="30" as="geometry" />
        </mxCell>
        <mxCell id="uPYfZFIlQ1WotkED66Lh-52" value="5" style="shape=partialRectangle;html=1;whiteSpace=wrap;connectable=0;strokeColor=inherit;overflow=hidden;fillColor=none;top=0;left=0;bottom=0;right=0;pointerEvents=1;fontSize=16;" vertex="1" parent="uPYfZFIlQ1WotkED66Lh-51">
          <mxGeometry width="37" height="30" as="geometry">
            <mxRectangle width="37" height="30" as="alternateBounds" />
          </mxGeometry>
        </mxCell>
        <mxCell id="uPYfZFIlQ1WotkED66Lh-53" value="3" style="shape=partialRectangle;html=1;whiteSpace=wrap;connectable=0;strokeColor=inherit;overflow=hidden;fillColor=none;top=0;left=0;bottom=0;right=0;pointerEvents=1;fontSize=16;" vertex="1" parent="uPYfZFIlQ1WotkED66Lh-51">
          <mxGeometry x="37" width="36" height="30" as="geometry">
            <mxRectangle width="36" height="30" as="alternateBounds" />
          </mxGeometry>
        </mxCell>
        <mxCell id="uPYfZFIlQ1WotkED66Lh-54" value="7" style="shape=partialRectangle;html=1;whiteSpace=wrap;connectable=0;strokeColor=inherit;overflow=hidden;fillColor=none;top=0;left=0;bottom=0;right=0;pointerEvents=1;fontSize=16;" vertex="1" parent="uPYfZFIlQ1WotkED66Lh-51">
          <mxGeometry x="73" width="37" height="30" as="geometry">
            <mxRectangle width="37" height="30" as="alternateBounds" />
          </mxGeometry>
        </mxCell>
        <mxCell id="uPYfZFIlQ1WotkED66Lh-55" value="" style="shape=table;startSize=0;container=1;collapsible=0;childLayout=tableLayout;fontSize=16;" vertex="1" parent="uPYfZFIlQ1WotkED66Lh-49">
          <mxGeometry y="60" width="110" height="30" as="geometry" />
        </mxCell>
        <mxCell id="uPYfZFIlQ1WotkED66Lh-56" value="" style="shape=tableRow;horizontal=0;startSize=0;swimlaneHead=0;swimlaneBody=0;strokeColor=inherit;top=0;left=0;bottom=0;right=0;collapsible=0;dropTarget=0;fillColor=none;points=[[0,0.5],[1,0.5]];portConstraint=eastwest;fontSize=16;" vertex="1" parent="uPYfZFIlQ1WotkED66Lh-55">
          <mxGeometry width="110" height="30" as="geometry" />
        </mxCell>
        <mxCell id="uPYfZFIlQ1WotkED66Lh-57" value="5" style="shape=partialRectangle;html=1;whiteSpace=wrap;connectable=0;strokeColor=inherit;overflow=hidden;fillColor=none;top=0;left=0;bottom=0;right=0;pointerEvents=1;fontSize=16;" vertex="1" parent="uPYfZFIlQ1WotkED66Lh-56">
          <mxGeometry width="37" height="30" as="geometry">
            <mxRectangle width="37" height="30" as="alternateBounds" />
          </mxGeometry>
        </mxCell>
        <mxCell id="uPYfZFIlQ1WotkED66Lh-58" value="0" style="shape=partialRectangle;html=1;whiteSpace=wrap;connectable=0;strokeColor=inherit;overflow=hidden;fillColor=none;top=0;left=0;bottom=0;right=0;pointerEvents=1;fontSize=16;" vertex="1" parent="uPYfZFIlQ1WotkED66Lh-56">
          <mxGeometry x="37" width="36" height="30" as="geometry">
            <mxRectangle width="36" height="30" as="alternateBounds" />
          </mxGeometry>
        </mxCell>
        <mxCell id="uPYfZFIlQ1WotkED66Lh-59" value="7" style="shape=partialRectangle;html=1;whiteSpace=wrap;connectable=0;strokeColor=inherit;overflow=hidden;fillColor=none;top=0;left=0;bottom=0;right=0;pointerEvents=1;fontSize=16;" vertex="1" parent="uPYfZFIlQ1WotkED66Lh-56">
          <mxGeometry x="73" width="37" height="30" as="geometry">
            <mxRectangle width="37" height="30" as="alternateBounds" />
          </mxGeometry>
        </mxCell>
        <mxCell id="uPYfZFIlQ1WotkED66Lh-60" value="B" style="rounded=0;whiteSpace=wrap;html=1;" vertex="1" parent="uPYfZFIlQ1WotkED66Lh-49">
          <mxGeometry y="30" width="110" height="30" as="geometry" />
        </mxCell>
        <mxCell id="uPYfZFIlQ1WotkED66Lh-98" value="" style="group" vertex="1" connectable="0" parent="uPYfZFIlQ1WotkED66Lh-37">
          <mxGeometry x="640" y="135" width="110" height="90" as="geometry" />
        </mxCell>
        <mxCell id="uPYfZFIlQ1WotkED66Lh-99" value="" style="shape=table;startSize=0;container=1;collapsible=0;childLayout=tableLayout;fontSize=16;" vertex="1" parent="uPYfZFIlQ1WotkED66Lh-98">
          <mxGeometry width="110" height="30" as="geometry" />
        </mxCell>
        <mxCell id="uPYfZFIlQ1WotkED66Lh-100" value="" style="shape=tableRow;horizontal=0;startSize=0;swimlaneHead=0;swimlaneBody=0;strokeColor=inherit;top=0;left=0;bottom=0;right=0;collapsible=0;dropTarget=0;fillColor=none;points=[[0,0.5],[1,0.5]];portConstraint=eastwest;fontSize=16;" vertex="1" parent="uPYfZFIlQ1WotkED66Lh-99">
          <mxGeometry width="110" height="30" as="geometry" />
        </mxCell>
        <mxCell id="uPYfZFIlQ1WotkED66Lh-101" value="16" style="shape=partialRectangle;html=1;whiteSpace=wrap;connectable=0;strokeColor=inherit;overflow=hidden;fillColor=none;top=0;left=0;bottom=0;right=0;pointerEvents=1;fontSize=16;" vertex="1" parent="uPYfZFIlQ1WotkED66Lh-100">
          <mxGeometry width="37" height="30" as="geometry">
            <mxRectangle width="37" height="30" as="alternateBounds" />
          </mxGeometry>
        </mxCell>
        <mxCell id="uPYfZFIlQ1WotkED66Lh-102" value="7" style="shape=partialRectangle;html=1;whiteSpace=wrap;connectable=0;strokeColor=inherit;overflow=hidden;fillColor=none;top=0;left=0;bottom=0;right=0;pointerEvents=1;fontSize=16;" vertex="1" parent="uPYfZFIlQ1WotkED66Lh-100">
          <mxGeometry x="37" width="36" height="30" as="geometry">
            <mxRectangle width="36" height="30" as="alternateBounds" />
          </mxGeometry>
        </mxCell>
        <mxCell id="uPYfZFIlQ1WotkED66Lh-103" value="22" style="shape=partialRectangle;html=1;whiteSpace=wrap;connectable=0;strokeColor=inherit;overflow=hidden;fillColor=none;top=0;left=0;bottom=0;right=0;pointerEvents=1;fontSize=16;" vertex="1" parent="uPYfZFIlQ1WotkED66Lh-100">
          <mxGeometry x="73" width="37" height="30" as="geometry">
            <mxRectangle width="37" height="30" as="alternateBounds" />
          </mxGeometry>
        </mxCell>
        <mxCell id="uPYfZFIlQ1WotkED66Lh-104" value="" style="shape=table;startSize=0;container=1;collapsible=0;childLayout=tableLayout;fontSize=16;" vertex="1" parent="uPYfZFIlQ1WotkED66Lh-98">
          <mxGeometry y="60" width="110" height="30" as="geometry" />
        </mxCell>
        <mxCell id="uPYfZFIlQ1WotkED66Lh-105" value="" style="shape=tableRow;horizontal=0;startSize=0;swimlaneHead=0;swimlaneBody=0;strokeColor=inherit;top=0;left=0;bottom=0;right=0;collapsible=0;dropTarget=0;fillColor=none;points=[[0,0.5],[1,0.5]];portConstraint=eastwest;fontSize=16;" vertex="1" parent="uPYfZFIlQ1WotkED66Lh-104">
          <mxGeometry width="110" height="30" as="geometry" />
        </mxCell>
        <mxCell id="uPYfZFIlQ1WotkED66Lh-106" value="16" style="shape=partialRectangle;html=1;whiteSpace=wrap;connectable=0;strokeColor=inherit;overflow=hidden;fillColor=none;top=0;left=0;bottom=0;right=0;pointerEvents=1;fontSize=16;" vertex="1" parent="uPYfZFIlQ1WotkED66Lh-105">
          <mxGeometry width="37" height="30" as="geometry">
            <mxRectangle width="37" height="30" as="alternateBounds" />
          </mxGeometry>
        </mxCell>
        <mxCell id="uPYfZFIlQ1WotkED66Lh-107" value="0" style="shape=partialRectangle;html=1;whiteSpace=wrap;connectable=0;strokeColor=inherit;overflow=hidden;fillColor=none;top=0;left=0;bottom=0;right=0;pointerEvents=1;fontSize=16;" vertex="1" parent="uPYfZFIlQ1WotkED66Lh-105">
          <mxGeometry x="37" width="36" height="30" as="geometry">
            <mxRectangle width="36" height="30" as="alternateBounds" />
          </mxGeometry>
        </mxCell>
        <mxCell id="uPYfZFIlQ1WotkED66Lh-108" value="22" style="shape=partialRectangle;html=1;whiteSpace=wrap;connectable=0;strokeColor=inherit;overflow=hidden;fillColor=none;top=0;left=0;bottom=0;right=0;pointerEvents=1;fontSize=16;" vertex="1" parent="uPYfZFIlQ1WotkED66Lh-105">
          <mxGeometry x="73" width="37" height="30" as="geometry">
            <mxRectangle width="37" height="30" as="alternateBounds" />
          </mxGeometry>
        </mxCell>
        <mxCell id="uPYfZFIlQ1WotkED66Lh-109" value="E" style="rounded=0;whiteSpace=wrap;html=1;" vertex="1" parent="uPYfZFIlQ1WotkED66Lh-98">
          <mxGeometry y="30" width="110" height="30" as="geometry" />
        </mxCell>
        <mxCell id="uPYfZFIlQ1WotkED66Lh-86" value="" style="group" vertex="1" connectable="0" parent="uPYfZFIlQ1WotkED66Lh-37">
          <mxGeometry x="490" y="135" width="110" height="90" as="geometry" />
        </mxCell>
        <mxCell id="uPYfZFIlQ1WotkED66Lh-87" value="" style="shape=table;startSize=0;container=1;collapsible=0;childLayout=tableLayout;fontSize=16;" vertex="1" parent="uPYfZFIlQ1WotkED66Lh-86">
          <mxGeometry width="110" height="30" as="geometry" />
        </mxCell>
        <mxCell id="uPYfZFIlQ1WotkED66Lh-88" value="" style="shape=tableRow;horizontal=0;startSize=0;swimlaneHead=0;swimlaneBody=0;strokeColor=inherit;top=0;left=0;bottom=0;right=0;collapsible=0;dropTarget=0;fillColor=none;points=[[0,0.5],[1,0.5]];portConstraint=eastwest;fontSize=16;" vertex="1" parent="uPYfZFIlQ1WotkED66Lh-87">
          <mxGeometry width="110" height="30" as="geometry" />
        </mxCell>
        <mxCell id="uPYfZFIlQ1WotkED66Lh-89" value="13" style="shape=partialRectangle;html=1;whiteSpace=wrap;connectable=0;strokeColor=inherit;overflow=hidden;fillColor=none;top=0;left=0;bottom=0;right=0;pointerEvents=1;fontSize=16;" vertex="1" parent="uPYfZFIlQ1WotkED66Lh-88">
          <mxGeometry width="37" height="30" as="geometry">
            <mxRectangle width="37" height="30" as="alternateBounds" />
          </mxGeometry>
        </mxCell>
        <mxCell id="uPYfZFIlQ1WotkED66Lh-90" value="3" style="shape=partialRectangle;html=1;whiteSpace=wrap;connectable=0;strokeColor=inherit;overflow=hidden;fillColor=none;top=0;left=0;bottom=0;right=0;pointerEvents=1;fontSize=16;" vertex="1" parent="uPYfZFIlQ1WotkED66Lh-88">
          <mxGeometry x="37" width="36" height="30" as="geometry">
            <mxRectangle width="36" height="30" as="alternateBounds" />
          </mxGeometry>
        </mxCell>
        <mxCell id="uPYfZFIlQ1WotkED66Lh-91" value="15" style="shape=partialRectangle;html=1;whiteSpace=wrap;connectable=0;strokeColor=inherit;overflow=hidden;fillColor=none;top=0;left=0;bottom=0;right=0;pointerEvents=1;fontSize=16;" vertex="1" parent="uPYfZFIlQ1WotkED66Lh-88">
          <mxGeometry x="73" width="37" height="30" as="geometry">
            <mxRectangle width="37" height="30" as="alternateBounds" />
          </mxGeometry>
        </mxCell>
        <mxCell id="uPYfZFIlQ1WotkED66Lh-92" value="" style="shape=table;startSize=0;container=1;collapsible=0;childLayout=tableLayout;fontSize=16;" vertex="1" parent="uPYfZFIlQ1WotkED66Lh-86">
          <mxGeometry y="60" width="110" height="30" as="geometry" />
        </mxCell>
        <mxCell id="uPYfZFIlQ1WotkED66Lh-93" value="" style="shape=tableRow;horizontal=0;startSize=0;swimlaneHead=0;swimlaneBody=0;strokeColor=inherit;top=0;left=0;bottom=0;right=0;collapsible=0;dropTarget=0;fillColor=none;points=[[0,0.5],[1,0.5]];portConstraint=eastwest;fontSize=16;" vertex="1" parent="uPYfZFIlQ1WotkED66Lh-92">
          <mxGeometry width="110" height="30" as="geometry" />
        </mxCell>
        <mxCell id="uPYfZFIlQ1WotkED66Lh-94" value="13" style="shape=partialRectangle;html=1;whiteSpace=wrap;connectable=0;strokeColor=inherit;overflow=hidden;fillColor=none;top=0;left=0;bottom=0;right=0;pointerEvents=1;fontSize=16;" vertex="1" parent="uPYfZFIlQ1WotkED66Lh-93">
          <mxGeometry width="37" height="30" as="geometry">
            <mxRectangle width="37" height="30" as="alternateBounds" />
          </mxGeometry>
        </mxCell>
        <mxCell id="uPYfZFIlQ1WotkED66Lh-95" value="0" style="shape=partialRectangle;html=1;whiteSpace=wrap;connectable=0;strokeColor=inherit;overflow=hidden;fillColor=none;top=0;left=0;bottom=0;right=0;pointerEvents=1;fontSize=16;" vertex="1" parent="uPYfZFIlQ1WotkED66Lh-93">
          <mxGeometry x="37" width="36" height="30" as="geometry">
            <mxRectangle width="36" height="30" as="alternateBounds" />
          </mxGeometry>
        </mxCell>
        <mxCell id="uPYfZFIlQ1WotkED66Lh-96" value="15" style="shape=partialRectangle;html=1;whiteSpace=wrap;connectable=0;strokeColor=inherit;overflow=hidden;fillColor=none;top=0;left=0;bottom=0;right=0;pointerEvents=1;fontSize=16;" vertex="1" parent="uPYfZFIlQ1WotkED66Lh-93">
          <mxGeometry x="73" width="37" height="30" as="geometry">
            <mxRectangle width="37" height="30" as="alternateBounds" />
          </mxGeometry>
        </mxCell>
        <mxCell id="uPYfZFIlQ1WotkED66Lh-97" value="D" style="rounded=0;whiteSpace=wrap;html=1;" vertex="1" parent="uPYfZFIlQ1WotkED66Lh-86">
          <mxGeometry y="30" width="110" height="30" as="geometry" />
        </mxCell>
        <mxCell id="uPYfZFIlQ1WotkED66Lh-62" value="" style="group" vertex="1" connectable="0" parent="uPYfZFIlQ1WotkED66Lh-37">
          <mxGeometry x="340" y="135" width="110" height="90" as="geometry" />
        </mxCell>
        <mxCell id="uPYfZFIlQ1WotkED66Lh-63" value="" style="shape=table;startSize=0;container=1;collapsible=0;childLayout=tableLayout;fontSize=16;" vertex="1" parent="uPYfZFIlQ1WotkED66Lh-62">
          <mxGeometry width="110" height="30" as="geometry" />
        </mxCell>
        <mxCell id="uPYfZFIlQ1WotkED66Lh-64" value="" style="shape=tableRow;horizontal=0;startSize=0;swimlaneHead=0;swimlaneBody=0;strokeColor=inherit;top=0;left=0;bottom=0;right=0;collapsible=0;dropTarget=0;fillColor=none;points=[[0,0.5],[1,0.5]];portConstraint=eastwest;fontSize=16;" vertex="1" parent="uPYfZFIlQ1WotkED66Lh-63">
          <mxGeometry width="110" height="30" as="geometry" />
        </mxCell>
        <mxCell id="uPYfZFIlQ1WotkED66Lh-65" value="8" style="shape=partialRectangle;html=1;whiteSpace=wrap;connectable=0;strokeColor=inherit;overflow=hidden;fillColor=none;top=0;left=0;bottom=0;right=0;pointerEvents=1;fontSize=16;" vertex="1" parent="uPYfZFIlQ1WotkED66Lh-64">
          <mxGeometry width="37" height="30" as="geometry">
            <mxRectangle width="37" height="30" as="alternateBounds" />
          </mxGeometry>
        </mxCell>
        <mxCell id="uPYfZFIlQ1WotkED66Lh-66" value="5" style="shape=partialRectangle;html=1;whiteSpace=wrap;connectable=0;strokeColor=inherit;overflow=hidden;fillColor=none;top=0;left=0;bottom=0;right=0;pointerEvents=1;fontSize=16;" vertex="1" parent="uPYfZFIlQ1WotkED66Lh-64">
          <mxGeometry x="37" width="36" height="30" as="geometry">
            <mxRectangle width="36" height="30" as="alternateBounds" />
          </mxGeometry>
        </mxCell>
        <mxCell id="uPYfZFIlQ1WotkED66Lh-67" value="12" style="shape=partialRectangle;html=1;whiteSpace=wrap;connectable=0;strokeColor=inherit;overflow=hidden;fillColor=none;top=0;left=0;bottom=0;right=0;pointerEvents=1;fontSize=16;" vertex="1" parent="uPYfZFIlQ1WotkED66Lh-64">
          <mxGeometry x="73" width="37" height="30" as="geometry">
            <mxRectangle width="37" height="30" as="alternateBounds" />
          </mxGeometry>
        </mxCell>
        <mxCell id="uPYfZFIlQ1WotkED66Lh-68" value="" style="shape=table;startSize=0;container=1;collapsible=0;childLayout=tableLayout;fontSize=16;" vertex="1" parent="uPYfZFIlQ1WotkED66Lh-62">
          <mxGeometry y="60" width="110" height="30" as="geometry" />
        </mxCell>
        <mxCell id="uPYfZFIlQ1WotkED66Lh-69" value="" style="shape=tableRow;horizontal=0;startSize=0;swimlaneHead=0;swimlaneBody=0;strokeColor=inherit;top=0;left=0;bottom=0;right=0;collapsible=0;dropTarget=0;fillColor=none;points=[[0,0.5],[1,0.5]];portConstraint=eastwest;fontSize=16;" vertex="1" parent="uPYfZFIlQ1WotkED66Lh-68">
          <mxGeometry width="110" height="30" as="geometry" />
        </mxCell>
        <mxCell id="uPYfZFIlQ1WotkED66Lh-70" value="8" style="shape=partialRectangle;html=1;whiteSpace=wrap;connectable=0;strokeColor=inherit;overflow=hidden;fillColor=none;top=0;left=0;bottom=0;right=0;pointerEvents=1;fontSize=16;" vertex="1" parent="uPYfZFIlQ1WotkED66Lh-69">
          <mxGeometry width="37" height="30" as="geometry">
            <mxRectangle width="37" height="30" as="alternateBounds" />
          </mxGeometry>
        </mxCell>
        <mxCell id="uPYfZFIlQ1WotkED66Lh-71" value="0" style="shape=partialRectangle;html=1;whiteSpace=wrap;connectable=0;strokeColor=inherit;overflow=hidden;fillColor=none;top=0;left=0;bottom=0;right=0;pointerEvents=1;fontSize=16;" vertex="1" parent="uPYfZFIlQ1WotkED66Lh-69">
          <mxGeometry x="37" width="36" height="30" as="geometry">
            <mxRectangle width="36" height="30" as="alternateBounds" />
          </mxGeometry>
        </mxCell>
        <mxCell id="uPYfZFIlQ1WotkED66Lh-72" value="12" style="shape=partialRectangle;html=1;whiteSpace=wrap;connectable=0;strokeColor=inherit;overflow=hidden;fillColor=none;top=0;left=0;bottom=0;right=0;pointerEvents=1;fontSize=16;" vertex="1" parent="uPYfZFIlQ1WotkED66Lh-69">
          <mxGeometry x="73" width="37" height="30" as="geometry">
            <mxRectangle width="37" height="30" as="alternateBounds" />
          </mxGeometry>
        </mxCell>
        <mxCell id="uPYfZFIlQ1WotkED66Lh-73" value="C" style="rounded=0;whiteSpace=wrap;html=1;" vertex="1" parent="uPYfZFIlQ1WotkED66Lh-62">
          <mxGeometry y="30" width="110" height="30" as="geometry" />
        </mxCell>
        <mxCell id="uPYfZFIlQ1WotkED66Lh-134" value="" style="group" vertex="1" connectable="0" parent="uPYfZFIlQ1WotkED66Lh-37">
          <mxGeometry x="790" y="135" width="110" height="90" as="geometry" />
        </mxCell>
        <mxCell id="uPYfZFIlQ1WotkED66Lh-135" value="" style="shape=table;startSize=0;container=1;collapsible=0;childLayout=tableLayout;fontSize=16;" vertex="1" parent="uPYfZFIlQ1WotkED66Lh-134">
          <mxGeometry width="110" height="30" as="geometry" />
        </mxCell>
        <mxCell id="uPYfZFIlQ1WotkED66Lh-136" value="" style="shape=tableRow;horizontal=0;startSize=0;swimlaneHead=0;swimlaneBody=0;strokeColor=inherit;top=0;left=0;bottom=0;right=0;collapsible=0;dropTarget=0;fillColor=none;points=[[0,0.5],[1,0.5]];portConstraint=eastwest;fontSize=16;" vertex="1" parent="uPYfZFIlQ1WotkED66Lh-135">
          <mxGeometry width="110" height="30" as="geometry" />
        </mxCell>
        <mxCell id="uPYfZFIlQ1WotkED66Lh-137" value="23" style="shape=partialRectangle;html=1;whiteSpace=wrap;connectable=0;strokeColor=inherit;overflow=hidden;fillColor=none;top=0;left=0;bottom=0;right=0;pointerEvents=1;fontSize=16;" vertex="1" parent="uPYfZFIlQ1WotkED66Lh-136">
          <mxGeometry width="37" height="30" as="geometry">
            <mxRectangle width="37" height="30" as="alternateBounds" />
          </mxGeometry>
        </mxCell>
        <mxCell id="uPYfZFIlQ1WotkED66Lh-138" value="7" style="shape=partialRectangle;html=1;whiteSpace=wrap;connectable=0;strokeColor=inherit;overflow=hidden;fillColor=none;top=0;left=0;bottom=0;right=0;pointerEvents=1;fontSize=16;" vertex="1" parent="uPYfZFIlQ1WotkED66Lh-136">
          <mxGeometry x="37" width="36" height="30" as="geometry">
            <mxRectangle width="36" height="30" as="alternateBounds" />
          </mxGeometry>
        </mxCell>
        <mxCell id="uPYfZFIlQ1WotkED66Lh-139" value="29" style="shape=partialRectangle;html=1;whiteSpace=wrap;connectable=0;strokeColor=inherit;overflow=hidden;fillColor=none;top=0;left=0;bottom=0;right=0;pointerEvents=1;fontSize=16;" vertex="1" parent="uPYfZFIlQ1WotkED66Lh-136">
          <mxGeometry x="73" width="37" height="30" as="geometry">
            <mxRectangle width="37" height="30" as="alternateBounds" />
          </mxGeometry>
        </mxCell>
        <mxCell id="uPYfZFIlQ1WotkED66Lh-140" value="" style="shape=table;startSize=0;container=1;collapsible=0;childLayout=tableLayout;fontSize=16;" vertex="1" parent="uPYfZFIlQ1WotkED66Lh-134">
          <mxGeometry y="60" width="110" height="30" as="geometry" />
        </mxCell>
        <mxCell id="uPYfZFIlQ1WotkED66Lh-141" value="" style="shape=tableRow;horizontal=0;startSize=0;swimlaneHead=0;swimlaneBody=0;strokeColor=inherit;top=0;left=0;bottom=0;right=0;collapsible=0;dropTarget=0;fillColor=none;points=[[0,0.5],[1,0.5]];portConstraint=eastwest;fontSize=16;" vertex="1" parent="uPYfZFIlQ1WotkED66Lh-140">
          <mxGeometry width="110" height="30" as="geometry" />
        </mxCell>
        <mxCell id="uPYfZFIlQ1WotkED66Lh-142" value="23" style="shape=partialRectangle;html=1;whiteSpace=wrap;connectable=0;strokeColor=inherit;overflow=hidden;fillColor=none;top=0;left=0;bottom=0;right=0;pointerEvents=1;fontSize=16;" vertex="1" parent="uPYfZFIlQ1WotkED66Lh-141">
          <mxGeometry width="37" height="30" as="geometry">
            <mxRectangle width="37" height="30" as="alternateBounds" />
          </mxGeometry>
        </mxCell>
        <mxCell id="uPYfZFIlQ1WotkED66Lh-143" value="0" style="shape=partialRectangle;html=1;whiteSpace=wrap;connectable=0;strokeColor=inherit;overflow=hidden;fillColor=none;top=0;left=0;bottom=0;right=0;pointerEvents=1;fontSize=16;" vertex="1" parent="uPYfZFIlQ1WotkED66Lh-141">
          <mxGeometry x="37" width="36" height="30" as="geometry">
            <mxRectangle width="36" height="30" as="alternateBounds" />
          </mxGeometry>
        </mxCell>
        <mxCell id="uPYfZFIlQ1WotkED66Lh-144" value="29" style="shape=partialRectangle;html=1;whiteSpace=wrap;connectable=0;strokeColor=inherit;overflow=hidden;fillColor=none;top=0;left=0;bottom=0;right=0;pointerEvents=1;fontSize=16;" vertex="1" parent="uPYfZFIlQ1WotkED66Lh-141">
          <mxGeometry x="73" width="37" height="30" as="geometry">
            <mxRectangle width="37" height="30" as="alternateBounds" />
          </mxGeometry>
        </mxCell>
        <mxCell id="uPYfZFIlQ1WotkED66Lh-145" value="F" style="rounded=0;whiteSpace=wrap;html=1;" vertex="1" parent="uPYfZFIlQ1WotkED66Lh-134">
          <mxGeometry y="30" width="110" height="30" as="geometry" />
        </mxCell>
        <mxCell id="uPYfZFIlQ1WotkED66Lh-146" value="" style="group" vertex="1" connectable="0" parent="uPYfZFIlQ1WotkED66Lh-37">
          <mxGeometry x="970" y="45" width="110" height="90" as="geometry" />
        </mxCell>
        <mxCell id="uPYfZFIlQ1WotkED66Lh-147" value="" style="shape=table;startSize=0;container=1;collapsible=0;childLayout=tableLayout;fontSize=16;" vertex="1" parent="uPYfZFIlQ1WotkED66Lh-146">
          <mxGeometry width="110" height="30" as="geometry" />
        </mxCell>
        <mxCell id="uPYfZFIlQ1WotkED66Lh-148" value="" style="shape=tableRow;horizontal=0;startSize=0;swimlaneHead=0;swimlaneBody=0;strokeColor=inherit;top=0;left=0;bottom=0;right=0;collapsible=0;dropTarget=0;fillColor=none;points=[[0,0.5],[1,0.5]];portConstraint=eastwest;fontSize=16;" vertex="1" parent="uPYfZFIlQ1WotkED66Lh-147">
          <mxGeometry width="110" height="30" as="geometry" />
        </mxCell>
        <mxCell id="uPYfZFIlQ1WotkED66Lh-149" value="30" style="shape=partialRectangle;html=1;whiteSpace=wrap;connectable=0;strokeColor=inherit;overflow=hidden;fillColor=none;top=0;left=0;bottom=0;right=0;pointerEvents=1;fontSize=16;" vertex="1" parent="uPYfZFIlQ1WotkED66Lh-148">
          <mxGeometry width="37" height="30" as="geometry">
            <mxRectangle width="37" height="30" as="alternateBounds" />
          </mxGeometry>
        </mxCell>
        <mxCell id="uPYfZFIlQ1WotkED66Lh-150" value="18" style="shape=partialRectangle;html=1;whiteSpace=wrap;connectable=0;strokeColor=inherit;overflow=hidden;fillColor=none;top=0;left=0;bottom=0;right=0;pointerEvents=1;fontSize=16;" vertex="1" parent="uPYfZFIlQ1WotkED66Lh-148">
          <mxGeometry x="37" width="36" height="30" as="geometry">
            <mxRectangle width="36" height="30" as="alternateBounds" />
          </mxGeometry>
        </mxCell>
        <mxCell id="uPYfZFIlQ1WotkED66Lh-151" value="47" style="shape=partialRectangle;html=1;whiteSpace=wrap;connectable=0;strokeColor=inherit;overflow=hidden;fillColor=none;top=0;left=0;bottom=0;right=0;pointerEvents=1;fontSize=16;" vertex="1" parent="uPYfZFIlQ1WotkED66Lh-148">
          <mxGeometry x="73" width="37" height="30" as="geometry">
            <mxRectangle width="37" height="30" as="alternateBounds" />
          </mxGeometry>
        </mxCell>
        <mxCell id="uPYfZFIlQ1WotkED66Lh-152" value="" style="shape=table;startSize=0;container=1;collapsible=0;childLayout=tableLayout;fontSize=16;" vertex="1" parent="uPYfZFIlQ1WotkED66Lh-146">
          <mxGeometry y="60" width="110" height="30" as="geometry" />
        </mxCell>
        <mxCell id="uPYfZFIlQ1WotkED66Lh-153" value="" style="shape=tableRow;horizontal=0;startSize=0;swimlaneHead=0;swimlaneBody=0;strokeColor=inherit;top=0;left=0;bottom=0;right=0;collapsible=0;dropTarget=0;fillColor=none;points=[[0,0.5],[1,0.5]];portConstraint=eastwest;fontSize=16;" vertex="1" parent="uPYfZFIlQ1WotkED66Lh-152">
          <mxGeometry width="110" height="30" as="geometry" />
        </mxCell>
        <mxCell id="uPYfZFIlQ1WotkED66Lh-154" value="36" style="shape=partialRectangle;html=1;whiteSpace=wrap;connectable=0;strokeColor=inherit;overflow=hidden;fillColor=none;top=0;left=0;bottom=0;right=0;pointerEvents=1;fontSize=16;" vertex="1" parent="uPYfZFIlQ1WotkED66Lh-153">
          <mxGeometry width="37" height="30" as="geometry">
            <mxRectangle width="37" height="30" as="alternateBounds" />
          </mxGeometry>
        </mxCell>
        <mxCell id="uPYfZFIlQ1WotkED66Lh-155" value="18" style="shape=partialRectangle;html=1;whiteSpace=wrap;connectable=0;strokeColor=inherit;overflow=hidden;fillColor=none;top=0;left=0;bottom=0;right=0;pointerEvents=1;fontSize=16;" vertex="1" parent="uPYfZFIlQ1WotkED66Lh-153">
          <mxGeometry x="37" width="36" height="30" as="geometry">
            <mxRectangle width="36" height="30" as="alternateBounds" />
          </mxGeometry>
        </mxCell>
        <mxCell id="uPYfZFIlQ1WotkED66Lh-156" value="53" style="shape=partialRectangle;html=1;whiteSpace=wrap;connectable=0;strokeColor=inherit;overflow=hidden;fillColor=none;top=0;left=0;bottom=0;right=0;pointerEvents=1;fontSize=16;" vertex="1" parent="uPYfZFIlQ1WotkED66Lh-153">
          <mxGeometry x="73" width="37" height="30" as="geometry">
            <mxRectangle width="37" height="30" as="alternateBounds" />
          </mxGeometry>
        </mxCell>
        <mxCell id="uPYfZFIlQ1WotkED66Lh-157" value="G" style="rounded=0;whiteSpace=wrap;html=1;" vertex="1" parent="uPYfZFIlQ1WotkED66Lh-146">
          <mxGeometry y="30" width="110" height="30" as="geometry" />
        </mxCell>
        <mxCell id="uPYfZFIlQ1WotkED66Lh-158" value="" style="group" vertex="1" connectable="0" parent="uPYfZFIlQ1WotkED66Lh-37">
          <mxGeometry x="970" y="225" width="110" height="90" as="geometry" />
        </mxCell>
        <mxCell id="uPYfZFIlQ1WotkED66Lh-159" value="" style="shape=table;startSize=0;container=1;collapsible=0;childLayout=tableLayout;fontSize=16;" vertex="1" parent="uPYfZFIlQ1WotkED66Lh-158">
          <mxGeometry width="110" height="30" as="geometry" />
        </mxCell>
        <mxCell id="uPYfZFIlQ1WotkED66Lh-160" value="" style="shape=tableRow;horizontal=0;startSize=0;swimlaneHead=0;swimlaneBody=0;strokeColor=inherit;top=0;left=0;bottom=0;right=0;collapsible=0;dropTarget=0;fillColor=none;points=[[0,0.5],[1,0.5]];portConstraint=eastwest;fontSize=16;" vertex="1" parent="uPYfZFIlQ1WotkED66Lh-159">
          <mxGeometry width="110" height="30" as="geometry" />
        </mxCell>
        <mxCell id="uPYfZFIlQ1WotkED66Lh-161" value="30" style="shape=partialRectangle;html=1;whiteSpace=wrap;connectable=0;strokeColor=inherit;overflow=hidden;fillColor=none;top=0;left=0;bottom=0;right=0;pointerEvents=1;fontSize=16;" vertex="1" parent="uPYfZFIlQ1WotkED66Lh-160">
          <mxGeometry width="37" height="30" as="geometry">
            <mxRectangle width="37" height="30" as="alternateBounds" />
          </mxGeometry>
        </mxCell>
        <mxCell id="uPYfZFIlQ1WotkED66Lh-162" value="24" style="shape=partialRectangle;html=1;whiteSpace=wrap;connectable=0;strokeColor=inherit;overflow=hidden;fillColor=none;top=0;left=0;bottom=0;right=0;pointerEvents=1;fontSize=16;" vertex="1" parent="uPYfZFIlQ1WotkED66Lh-160">
          <mxGeometry x="37" width="36" height="30" as="geometry">
            <mxRectangle width="36" height="30" as="alternateBounds" />
          </mxGeometry>
        </mxCell>
        <mxCell id="uPYfZFIlQ1WotkED66Lh-163" value="53" style="shape=partialRectangle;html=1;whiteSpace=wrap;connectable=0;strokeColor=inherit;overflow=hidden;fillColor=none;top=0;left=0;bottom=0;right=0;pointerEvents=1;fontSize=16;" vertex="1" parent="uPYfZFIlQ1WotkED66Lh-160">
          <mxGeometry x="73" width="37" height="30" as="geometry">
            <mxRectangle width="37" height="30" as="alternateBounds" />
          </mxGeometry>
        </mxCell>
        <mxCell id="uPYfZFIlQ1WotkED66Lh-164" value="" style="shape=table;startSize=0;container=1;collapsible=0;childLayout=tableLayout;fontSize=16;" vertex="1" parent="uPYfZFIlQ1WotkED66Lh-158">
          <mxGeometry y="60" width="110" height="30" as="geometry" />
        </mxCell>
        <mxCell id="uPYfZFIlQ1WotkED66Lh-165" value="" style="shape=tableRow;horizontal=0;startSize=0;swimlaneHead=0;swimlaneBody=0;strokeColor=inherit;top=0;left=0;bottom=0;right=0;collapsible=0;dropTarget=0;fillColor=none;points=[[0,0.5],[1,0.5]];portConstraint=eastwest;fontSize=16;" vertex="1" parent="uPYfZFIlQ1WotkED66Lh-164">
          <mxGeometry width="110" height="30" as="geometry" />
        </mxCell>
        <mxCell id="uPYfZFIlQ1WotkED66Lh-166" value="30" style="shape=partialRectangle;html=1;whiteSpace=wrap;connectable=0;strokeColor=inherit;overflow=hidden;fillColor=none;top=0;left=0;bottom=0;right=0;pointerEvents=1;fontSize=16;" vertex="1" parent="uPYfZFIlQ1WotkED66Lh-165">
          <mxGeometry width="37" height="30" as="geometry">
            <mxRectangle width="37" height="30" as="alternateBounds" />
          </mxGeometry>
        </mxCell>
        <mxCell id="uPYfZFIlQ1WotkED66Lh-167" value="0" style="shape=partialRectangle;html=1;whiteSpace=wrap;connectable=0;strokeColor=inherit;overflow=hidden;fillColor=none;top=0;left=0;bottom=0;right=0;pointerEvents=1;fontSize=16;" vertex="1" parent="uPYfZFIlQ1WotkED66Lh-165">
          <mxGeometry x="37" width="36" height="30" as="geometry">
            <mxRectangle width="36" height="30" as="alternateBounds" />
          </mxGeometry>
        </mxCell>
        <mxCell id="uPYfZFIlQ1WotkED66Lh-168" value="53" style="shape=partialRectangle;html=1;whiteSpace=wrap;connectable=0;strokeColor=inherit;overflow=hidden;fillColor=none;top=0;left=0;bottom=0;right=0;pointerEvents=1;fontSize=16;" vertex="1" parent="uPYfZFIlQ1WotkED66Lh-165">
          <mxGeometry x="73" width="37" height="30" as="geometry">
            <mxRectangle width="37" height="30" as="alternateBounds" />
          </mxGeometry>
        </mxCell>
        <mxCell id="uPYfZFIlQ1WotkED66Lh-169" value="H" style="rounded=0;whiteSpace=wrap;html=1;" vertex="1" parent="uPYfZFIlQ1WotkED66Lh-158">
          <mxGeometry y="30" width="110" height="30" as="geometry" />
        </mxCell>
        <mxCell id="uPYfZFIlQ1WotkED66Lh-170" value="" style="group" vertex="1" connectable="0" parent="uPYfZFIlQ1WotkED66Lh-37">
          <mxGeometry x="1150" y="135" width="110" height="90" as="geometry" />
        </mxCell>
        <mxCell id="uPYfZFIlQ1WotkED66Lh-171" value="" style="shape=table;startSize=0;container=1;collapsible=0;childLayout=tableLayout;fontSize=16;" vertex="1" parent="uPYfZFIlQ1WotkED66Lh-170">
          <mxGeometry width="110" height="30" as="geometry" />
        </mxCell>
        <mxCell id="uPYfZFIlQ1WotkED66Lh-172" value="" style="shape=tableRow;horizontal=0;startSize=0;swimlaneHead=0;swimlaneBody=0;strokeColor=inherit;top=0;left=0;bottom=0;right=0;collapsible=0;dropTarget=0;fillColor=none;points=[[0,0.5],[1,0.5]];portConstraint=eastwest;fontSize=16;" vertex="1" parent="uPYfZFIlQ1WotkED66Lh-171">
          <mxGeometry width="110" height="30" as="geometry" />
        </mxCell>
        <mxCell id="uPYfZFIlQ1WotkED66Lh-173" value="54" style="shape=partialRectangle;html=1;whiteSpace=wrap;connectable=0;strokeColor=inherit;overflow=hidden;fillColor=none;top=0;left=0;bottom=0;right=0;pointerEvents=1;fontSize=16;" vertex="1" parent="uPYfZFIlQ1WotkED66Lh-172">
          <mxGeometry width="37" height="30" as="geometry">
            <mxRectangle width="37" height="30" as="alternateBounds" />
          </mxGeometry>
        </mxCell>
        <mxCell id="uPYfZFIlQ1WotkED66Lh-174" value="10" style="shape=partialRectangle;html=1;whiteSpace=wrap;connectable=0;strokeColor=inherit;overflow=hidden;fillColor=none;top=0;left=0;bottom=0;right=0;pointerEvents=1;fontSize=16;" vertex="1" parent="uPYfZFIlQ1WotkED66Lh-172">
          <mxGeometry x="37" width="36" height="30" as="geometry">
            <mxRectangle width="36" height="30" as="alternateBounds" />
          </mxGeometry>
        </mxCell>
        <mxCell id="uPYfZFIlQ1WotkED66Lh-175" value="63" style="shape=partialRectangle;html=1;whiteSpace=wrap;connectable=0;strokeColor=inherit;overflow=hidden;fillColor=none;top=0;left=0;bottom=0;right=0;pointerEvents=1;fontSize=16;" vertex="1" parent="uPYfZFIlQ1WotkED66Lh-172">
          <mxGeometry x="73" width="37" height="30" as="geometry">
            <mxRectangle width="37" height="30" as="alternateBounds" />
          </mxGeometry>
        </mxCell>
        <mxCell id="uPYfZFIlQ1WotkED66Lh-176" value="" style="shape=table;startSize=0;container=1;collapsible=0;childLayout=tableLayout;fontSize=16;" vertex="1" parent="uPYfZFIlQ1WotkED66Lh-170">
          <mxGeometry y="60" width="110" height="30" as="geometry" />
        </mxCell>
        <mxCell id="uPYfZFIlQ1WotkED66Lh-177" value="" style="shape=tableRow;horizontal=0;startSize=0;swimlaneHead=0;swimlaneBody=0;strokeColor=inherit;top=0;left=0;bottom=0;right=0;collapsible=0;dropTarget=0;fillColor=none;points=[[0,0.5],[1,0.5]];portConstraint=eastwest;fontSize=16;" vertex="1" parent="uPYfZFIlQ1WotkED66Lh-176">
          <mxGeometry width="110" height="30" as="geometry" />
        </mxCell>
        <mxCell id="uPYfZFIlQ1WotkED66Lh-178" value="54" style="shape=partialRectangle;html=1;whiteSpace=wrap;connectable=0;strokeColor=inherit;overflow=hidden;fillColor=none;top=0;left=0;bottom=0;right=0;pointerEvents=1;fontSize=16;" vertex="1" parent="uPYfZFIlQ1WotkED66Lh-177">
          <mxGeometry width="37" height="30" as="geometry">
            <mxRectangle width="37" height="30" as="alternateBounds" />
          </mxGeometry>
        </mxCell>
        <mxCell id="uPYfZFIlQ1WotkED66Lh-179" value="0" style="shape=partialRectangle;html=1;whiteSpace=wrap;connectable=0;strokeColor=inherit;overflow=hidden;fillColor=none;top=0;left=0;bottom=0;right=0;pointerEvents=1;fontSize=16;" vertex="1" parent="uPYfZFIlQ1WotkED66Lh-177">
          <mxGeometry x="37" width="36" height="30" as="geometry">
            <mxRectangle width="36" height="30" as="alternateBounds" />
          </mxGeometry>
        </mxCell>
        <mxCell id="uPYfZFIlQ1WotkED66Lh-180" value="63" style="shape=partialRectangle;html=1;whiteSpace=wrap;connectable=0;strokeColor=inherit;overflow=hidden;fillColor=none;top=0;left=0;bottom=0;right=0;pointerEvents=1;fontSize=16;" vertex="1" parent="uPYfZFIlQ1WotkED66Lh-177">
          <mxGeometry x="73" width="37" height="30" as="geometry">
            <mxRectangle width="37" height="30" as="alternateBounds" />
          </mxGeometry>
        </mxCell>
        <mxCell id="uPYfZFIlQ1WotkED66Lh-181" value="I" style="rounded=0;whiteSpace=wrap;html=1;" vertex="1" parent="uPYfZFIlQ1WotkED66Lh-170">
          <mxGeometry y="30" width="110" height="30" as="geometry" />
        </mxCell>
        <mxCell id="uPYfZFIlQ1WotkED66Lh-182" value="" style="group" vertex="1" connectable="0" parent="uPYfZFIlQ1WotkED66Lh-37">
          <mxGeometry x="1300" y="135" width="110" height="90" as="geometry" />
        </mxCell>
        <mxCell id="uPYfZFIlQ1WotkED66Lh-183" value="" style="shape=table;startSize=0;container=1;collapsible=0;childLayout=tableLayout;fontSize=16;" vertex="1" parent="uPYfZFIlQ1WotkED66Lh-182">
          <mxGeometry width="110" height="30" as="geometry" />
        </mxCell>
        <mxCell id="uPYfZFIlQ1WotkED66Lh-184" value="" style="shape=tableRow;horizontal=0;startSize=0;swimlaneHead=0;swimlaneBody=0;strokeColor=inherit;top=0;left=0;bottom=0;right=0;collapsible=0;dropTarget=0;fillColor=none;points=[[0,0.5],[1,0.5]];portConstraint=eastwest;fontSize=16;" vertex="1" parent="uPYfZFIlQ1WotkED66Lh-183">
          <mxGeometry width="110" height="30" as="geometry" />
        </mxCell>
        <mxCell id="uPYfZFIlQ1WotkED66Lh-185" value="64" style="shape=partialRectangle;html=1;whiteSpace=wrap;connectable=0;strokeColor=inherit;overflow=hidden;fillColor=none;top=0;left=0;bottom=0;right=0;pointerEvents=1;fontSize=16;" vertex="1" parent="uPYfZFIlQ1WotkED66Lh-184">
          <mxGeometry width="37" height="30" as="geometry">
            <mxRectangle width="37" height="30" as="alternateBounds" />
          </mxGeometry>
        </mxCell>
        <mxCell id="uPYfZFIlQ1WotkED66Lh-186" value="4" style="shape=partialRectangle;html=1;whiteSpace=wrap;connectable=0;strokeColor=inherit;overflow=hidden;fillColor=none;top=0;left=0;bottom=0;right=0;pointerEvents=1;fontSize=16;" vertex="1" parent="uPYfZFIlQ1WotkED66Lh-184">
          <mxGeometry x="37" width="36" height="30" as="geometry">
            <mxRectangle width="36" height="30" as="alternateBounds" />
          </mxGeometry>
        </mxCell>
        <mxCell id="uPYfZFIlQ1WotkED66Lh-187" value="67" style="shape=partialRectangle;html=1;whiteSpace=wrap;connectable=0;strokeColor=inherit;overflow=hidden;fillColor=none;top=0;left=0;bottom=0;right=0;pointerEvents=1;fontSize=16;" vertex="1" parent="uPYfZFIlQ1WotkED66Lh-184">
          <mxGeometry x="73" width="37" height="30" as="geometry">
            <mxRectangle width="37" height="30" as="alternateBounds" />
          </mxGeometry>
        </mxCell>
        <mxCell id="uPYfZFIlQ1WotkED66Lh-188" value="" style="shape=table;startSize=0;container=1;collapsible=0;childLayout=tableLayout;fontSize=16;" vertex="1" parent="uPYfZFIlQ1WotkED66Lh-182">
          <mxGeometry y="60" width="110" height="30" as="geometry" />
        </mxCell>
        <mxCell id="uPYfZFIlQ1WotkED66Lh-189" value="" style="shape=tableRow;horizontal=0;startSize=0;swimlaneHead=0;swimlaneBody=0;strokeColor=inherit;top=0;left=0;bottom=0;right=0;collapsible=0;dropTarget=0;fillColor=none;points=[[0,0.5],[1,0.5]];portConstraint=eastwest;fontSize=16;" vertex="1" parent="uPYfZFIlQ1WotkED66Lh-188">
          <mxGeometry width="110" height="30" as="geometry" />
        </mxCell>
        <mxCell id="uPYfZFIlQ1WotkED66Lh-190" value="64" style="shape=partialRectangle;html=1;whiteSpace=wrap;connectable=0;strokeColor=inherit;overflow=hidden;fillColor=none;top=0;left=0;bottom=0;right=0;pointerEvents=1;fontSize=16;" vertex="1" parent="uPYfZFIlQ1WotkED66Lh-189">
          <mxGeometry width="37" height="30" as="geometry">
            <mxRectangle width="37" height="30" as="alternateBounds" />
          </mxGeometry>
        </mxCell>
        <mxCell id="uPYfZFIlQ1WotkED66Lh-191" value="0" style="shape=partialRectangle;html=1;whiteSpace=wrap;connectable=0;strokeColor=inherit;overflow=hidden;fillColor=none;top=0;left=0;bottom=0;right=0;pointerEvents=1;fontSize=16;" vertex="1" parent="uPYfZFIlQ1WotkED66Lh-189">
          <mxGeometry x="37" width="36" height="30" as="geometry">
            <mxRectangle width="36" height="30" as="alternateBounds" />
          </mxGeometry>
        </mxCell>
        <mxCell id="uPYfZFIlQ1WotkED66Lh-192" value="67" style="shape=partialRectangle;html=1;whiteSpace=wrap;connectable=0;strokeColor=inherit;overflow=hidden;fillColor=none;top=0;left=0;bottom=0;right=0;pointerEvents=1;fontSize=16;" vertex="1" parent="uPYfZFIlQ1WotkED66Lh-189">
          <mxGeometry x="73" width="37" height="30" as="geometry">
            <mxRectangle width="37" height="30" as="alternateBounds" />
          </mxGeometry>
        </mxCell>
        <mxCell id="uPYfZFIlQ1WotkED66Lh-193" value="J" style="rounded=0;whiteSpace=wrap;html=1;" vertex="1" parent="uPYfZFIlQ1WotkED66Lh-182">
          <mxGeometry y="30" width="110" height="30" as="geometry" />
        </mxCell>
        <mxCell id="uPYfZFIlQ1WotkED66Lh-194" value="" style="group" vertex="1" connectable="0" parent="uPYfZFIlQ1WotkED66Lh-37">
          <mxGeometry x="1450" y="135" width="110" height="90" as="geometry" />
        </mxCell>
        <mxCell id="uPYfZFIlQ1WotkED66Lh-195" value="" style="shape=table;startSize=0;container=1;collapsible=0;childLayout=tableLayout;fontSize=16;" vertex="1" parent="uPYfZFIlQ1WotkED66Lh-194">
          <mxGeometry width="110" height="30" as="geometry" />
        </mxCell>
        <mxCell id="uPYfZFIlQ1WotkED66Lh-196" value="" style="shape=tableRow;horizontal=0;startSize=0;swimlaneHead=0;swimlaneBody=0;strokeColor=inherit;top=0;left=0;bottom=0;right=0;collapsible=0;dropTarget=0;fillColor=none;points=[[0,0.5],[1,0.5]];portConstraint=eastwest;fontSize=16;" vertex="1" parent="uPYfZFIlQ1WotkED66Lh-195">
          <mxGeometry width="110" height="30" as="geometry" />
        </mxCell>
        <mxCell id="uPYfZFIlQ1WotkED66Lh-197" value="68" style="shape=partialRectangle;html=1;whiteSpace=wrap;connectable=0;strokeColor=inherit;overflow=hidden;fillColor=none;top=0;left=0;bottom=0;right=0;pointerEvents=1;fontSize=16;" vertex="1" parent="uPYfZFIlQ1WotkED66Lh-196">
          <mxGeometry width="37" height="30" as="geometry">
            <mxRectangle width="37" height="30" as="alternateBounds" />
          </mxGeometry>
        </mxCell>
        <mxCell id="uPYfZFIlQ1WotkED66Lh-198" value="8" style="shape=partialRectangle;html=1;whiteSpace=wrap;connectable=0;strokeColor=inherit;overflow=hidden;fillColor=none;top=0;left=0;bottom=0;right=0;pointerEvents=1;fontSize=16;" vertex="1" parent="uPYfZFIlQ1WotkED66Lh-196">
          <mxGeometry x="37" width="36" height="30" as="geometry">
            <mxRectangle width="36" height="30" as="alternateBounds" />
          </mxGeometry>
        </mxCell>
        <mxCell id="uPYfZFIlQ1WotkED66Lh-199" value="75" style="shape=partialRectangle;html=1;whiteSpace=wrap;connectable=0;strokeColor=inherit;overflow=hidden;fillColor=none;top=0;left=0;bottom=0;right=0;pointerEvents=1;fontSize=16;" vertex="1" parent="uPYfZFIlQ1WotkED66Lh-196">
          <mxGeometry x="73" width="37" height="30" as="geometry">
            <mxRectangle width="37" height="30" as="alternateBounds" />
          </mxGeometry>
        </mxCell>
        <mxCell id="uPYfZFIlQ1WotkED66Lh-200" value="" style="shape=table;startSize=0;container=1;collapsible=0;childLayout=tableLayout;fontSize=16;" vertex="1" parent="uPYfZFIlQ1WotkED66Lh-194">
          <mxGeometry y="60" width="110" height="30" as="geometry" />
        </mxCell>
        <mxCell id="uPYfZFIlQ1WotkED66Lh-201" value="" style="shape=tableRow;horizontal=0;startSize=0;swimlaneHead=0;swimlaneBody=0;strokeColor=inherit;top=0;left=0;bottom=0;right=0;collapsible=0;dropTarget=0;fillColor=none;points=[[0,0.5],[1,0.5]];portConstraint=eastwest;fontSize=16;" vertex="1" parent="uPYfZFIlQ1WotkED66Lh-200">
          <mxGeometry width="110" height="30" as="geometry" />
        </mxCell>
        <mxCell id="uPYfZFIlQ1WotkED66Lh-202" value="68" style="shape=partialRectangle;html=1;whiteSpace=wrap;connectable=0;strokeColor=inherit;overflow=hidden;fillColor=none;top=0;left=0;bottom=0;right=0;pointerEvents=1;fontSize=16;" vertex="1" parent="uPYfZFIlQ1WotkED66Lh-201">
          <mxGeometry width="37" height="30" as="geometry">
            <mxRectangle width="37" height="30" as="alternateBounds" />
          </mxGeometry>
        </mxCell>
        <mxCell id="uPYfZFIlQ1WotkED66Lh-203" value="0" style="shape=partialRectangle;html=1;whiteSpace=wrap;connectable=0;strokeColor=inherit;overflow=hidden;fillColor=none;top=0;left=0;bottom=0;right=0;pointerEvents=1;fontSize=16;" vertex="1" parent="uPYfZFIlQ1WotkED66Lh-201">
          <mxGeometry x="37" width="36" height="30" as="geometry">
            <mxRectangle width="36" height="30" as="alternateBounds" />
          </mxGeometry>
        </mxCell>
        <mxCell id="uPYfZFIlQ1WotkED66Lh-204" value="75" style="shape=partialRectangle;html=1;whiteSpace=wrap;connectable=0;strokeColor=inherit;overflow=hidden;fillColor=none;top=0;left=0;bottom=0;right=0;pointerEvents=1;fontSize=16;" vertex="1" parent="uPYfZFIlQ1WotkED66Lh-201">
          <mxGeometry x="73" width="37" height="30" as="geometry">
            <mxRectangle width="37" height="30" as="alternateBounds" />
          </mxGeometry>
        </mxCell>
        <mxCell id="uPYfZFIlQ1WotkED66Lh-205" value="K" style="rounded=0;whiteSpace=wrap;html=1;" vertex="1" parent="uPYfZFIlQ1WotkED66Lh-194">
          <mxGeometry y="30" width="110" height="30" as="geometry" />
        </mxCell>
        <mxCell id="uPYfZFIlQ1WotkED66Lh-206" style="edgeStyle=orthogonalEdgeStyle;rounded=0;orthogonalLoop=1;jettySize=auto;html=1;entryX=0;entryY=0.5;entryDx=0;entryDy=0;" edge="1" parent="uPYfZFIlQ1WotkED66Lh-37" source="uPYfZFIlQ1WotkED66Lh-36" target="uPYfZFIlQ1WotkED66Lh-60">
          <mxGeometry relative="1" as="geometry" />
        </mxCell>
        <mxCell id="uPYfZFIlQ1WotkED66Lh-207" style="edgeStyle=orthogonalEdgeStyle;rounded=0;orthogonalLoop=1;jettySize=auto;html=1;entryX=0;entryY=0.5;entryDx=0;entryDy=0;" edge="1" parent="uPYfZFIlQ1WotkED66Lh-37" source="uPYfZFIlQ1WotkED66Lh-60" target="uPYfZFIlQ1WotkED66Lh-73">
          <mxGeometry relative="1" as="geometry" />
        </mxCell>
        <mxCell id="uPYfZFIlQ1WotkED66Lh-208" style="edgeStyle=orthogonalEdgeStyle;rounded=0;orthogonalLoop=1;jettySize=auto;html=1;entryX=0;entryY=0.5;entryDx=0;entryDy=0;" edge="1" parent="uPYfZFIlQ1WotkED66Lh-37" source="uPYfZFIlQ1WotkED66Lh-73" target="uPYfZFIlQ1WotkED66Lh-97">
          <mxGeometry relative="1" as="geometry" />
        </mxCell>
        <mxCell id="uPYfZFIlQ1WotkED66Lh-209" style="edgeStyle=orthogonalEdgeStyle;rounded=0;orthogonalLoop=1;jettySize=auto;html=1;entryX=0;entryY=0.5;entryDx=0;entryDy=0;" edge="1" parent="uPYfZFIlQ1WotkED66Lh-37" source="uPYfZFIlQ1WotkED66Lh-97" target="uPYfZFIlQ1WotkED66Lh-109">
          <mxGeometry relative="1" as="geometry" />
        </mxCell>
        <mxCell id="uPYfZFIlQ1WotkED66Lh-210" style="edgeStyle=orthogonalEdgeStyle;rounded=0;orthogonalLoop=1;jettySize=auto;html=1;entryX=0;entryY=0.5;entryDx=0;entryDy=0;" edge="1" parent="uPYfZFIlQ1WotkED66Lh-37" source="uPYfZFIlQ1WotkED66Lh-109" target="uPYfZFIlQ1WotkED66Lh-145">
          <mxGeometry relative="1" as="geometry" />
        </mxCell>
        <mxCell id="uPYfZFIlQ1WotkED66Lh-211" style="edgeStyle=orthogonalEdgeStyle;rounded=0;orthogonalLoop=1;jettySize=auto;html=1;entryX=0;entryY=0.5;entryDx=0;entryDy=0;exitX=1;exitY=0.25;exitDx=0;exitDy=0;" edge="1" parent="uPYfZFIlQ1WotkED66Lh-37" source="uPYfZFIlQ1WotkED66Lh-145" target="uPYfZFIlQ1WotkED66Lh-157">
          <mxGeometry relative="1" as="geometry" />
        </mxCell>
        <mxCell id="uPYfZFIlQ1WotkED66Lh-212" style="edgeStyle=orthogonalEdgeStyle;rounded=0;orthogonalLoop=1;jettySize=auto;html=1;entryX=0;entryY=0.5;entryDx=0;entryDy=0;exitX=1;exitY=0.75;exitDx=0;exitDy=0;" edge="1" parent="uPYfZFIlQ1WotkED66Lh-37" source="uPYfZFIlQ1WotkED66Lh-145" target="uPYfZFIlQ1WotkED66Lh-169">
          <mxGeometry relative="1" as="geometry" />
        </mxCell>
        <mxCell id="uPYfZFIlQ1WotkED66Lh-213" style="edgeStyle=orthogonalEdgeStyle;rounded=0;orthogonalLoop=1;jettySize=auto;html=1;entryX=0;entryY=0.75;entryDx=0;entryDy=0;" edge="1" parent="uPYfZFIlQ1WotkED66Lh-37" source="uPYfZFIlQ1WotkED66Lh-169" target="uPYfZFIlQ1WotkED66Lh-181">
          <mxGeometry relative="1" as="geometry" />
        </mxCell>
        <mxCell id="uPYfZFIlQ1WotkED66Lh-214" style="edgeStyle=orthogonalEdgeStyle;rounded=0;orthogonalLoop=1;jettySize=auto;html=1;entryX=0;entryY=0.25;entryDx=0;entryDy=0;" edge="1" parent="uPYfZFIlQ1WotkED66Lh-37" source="uPYfZFIlQ1WotkED66Lh-157" target="uPYfZFIlQ1WotkED66Lh-181">
          <mxGeometry relative="1" as="geometry" />
        </mxCell>
        <mxCell id="uPYfZFIlQ1WotkED66Lh-215" style="edgeStyle=orthogonalEdgeStyle;rounded=0;orthogonalLoop=1;jettySize=auto;html=1;entryX=0;entryY=0.5;entryDx=0;entryDy=0;" edge="1" parent="uPYfZFIlQ1WotkED66Lh-37" source="uPYfZFIlQ1WotkED66Lh-181" target="uPYfZFIlQ1WotkED66Lh-193">
          <mxGeometry relative="1" as="geometry" />
        </mxCell>
        <mxCell id="uPYfZFIlQ1WotkED66Lh-216" style="edgeStyle=orthogonalEdgeStyle;rounded=0;orthogonalLoop=1;jettySize=auto;html=1;entryX=0;entryY=0.5;entryDx=0;entryDy=0;" edge="1" parent="uPYfZFIlQ1WotkED66Lh-37" source="uPYfZFIlQ1WotkED66Lh-193" target="uPYfZFIlQ1WotkED66Lh-205">
          <mxGeometry relative="1" as="geometry" />
        </mxCell>
      </root>
    </mxGraphModel>
  </diagram>
</mxfile>
